<?xml version="1.0" encoding="utf-8"?>
<!-- Generator: Adobe Illustrator 23.0.0, SVG Export Plug-In . SVG Version: 6.00 Build 0)  -->
<svg version="1.1" id="Capa_1" xmlns="http://www.w3.org/2000/svg" xmlns:xlink="http://www.w3.org/1999/xlink" x="0px" y="0px"
	 viewBox="0 0 673 64.7" style="enable-background:new 0 0 673 64.7;" xml:space="preserve">
<style type="text/css">
	.st0{fill:#FFFFFF;}
	.st1{fill:#224870;}
	.st2{enable-background:new    ;}
	.st3{fill:#FBD206;}
</style>
<g id="Grupo_7" transform="translate(578 89)">
	<g id="Grupo_5">
		<g id="Grupo_2" transform="translate(-24.654 -94.295)">
			<path id="Trazado_1" class="st0" d="M-516,47.2c1-1.3,1.5-2.8,1.6-4.4c0-0.8-0.6-1.4-1.4-1.4c-0.5,0-1,0.3-1.3,0.8
				c-0.2,0.3-0.4,0.6-0.7,0.8c-0.5,0.3-1.1,0.3-1.6,0c-0.3-0.2-0.6-0.5-0.8-0.8c-1.2-1.3-3.2-3.6-6.9-3.6c-1,0-2,0.3-2.8,1
				c-0.8-0.7-1.8-1-2.8-1c-3.6,0-5.7,2.2-6.9,3.6c-0.2,0.3-0.5,0.6-0.8,0.8c-0.5,0.3-1.2,0.3-1.6,0c-0.3-0.2-0.5-0.5-0.7-0.8
				c-0.3-0.7-1.2-1-1.9-0.6c-0.5,0.2-0.8,0.7-0.8,1.3c0.1,1.6,0.6,3.2,1.6,4.4c-1.7,2.7-2.3,5.9-1.5,9c0.2,0.8,1,1.2,1.7,1
				c0,0,0.1,0,0.1,0l1.4-0.5c-0.6,2.4-0.1,4.9,1.3,6.9c0.4,0.6,1.3,0.8,2,0.4c0.1-0.1,0.1-0.1,0.2-0.2l1.4-1.4
				c0.1,0.8,0.3,1.6,0.7,2.4c1.1,2.3,3.2,4,6.3,5c0.3,0.1,0.6,0.1,0.9,0c3.1-1,5.2-2.7,6.3-5c0.3-0.8,0.6-1.6,0.7-2.4l1.4,1.4
				c0.6,0.6,1.4,0.5,2,0c0.1-0.1,0.1-0.1,0.2-0.2c1.4-2,1.8-4.6,1.3-6.9l1.4,0.5c0.7,0.2,1.5-0.2,1.8-0.9c0,0,0-0.1,0-0.1
				C-513.8,53.1-514.3,49.8-516,47.2z M-530,51.6c-2.2-0.1-4.3-0.6-6.3-1.6c1.8-0.2,3.4-0.8,4.9-1.8c0.5-0.4,1-0.8,1.4-1.3
				c0.4,0.5,0.9,0.9,1.4,1.3c1.5,1,3.1,1.6,4.9,1.8C-525.6,51-527.8,51.5-530,51.6z"/>
			<path id="Trazado_2" class="st0" d="M-512.4,29.3h-14c0,0,0,0-0.1,0h-6.7c0,0,0,0-0.1,0h-14c-0.9,0-1.7,0.8-1.7,1.7
				c0,0.1,0,0.1,0,0.2c0.3,4.8,4.4,8.5,9.2,8.2c4.2-0.3,7.6-3.4,8.1-7.6h3.6c0.6,4.8,5,8.1,9.7,7.5c4.1-0.5,7.3-3.9,7.6-8.1
				c0.1-0.9-0.6-1.8-1.5-1.9C-512.3,29.3-512.4,29.3-512.4,29.3z M-531.6,31.5c0-0.1,0-0.2,0-0.4c0-0.3,0-0.6-0.1-0.9h3.7
				c-0.1,0.3-0.2,0.6-0.1,0.9c0,0.1,0,0.3,0,0.4H-531.6z"/>
			<path id="Trazado_3" class="st0" d="M-509.7,22.3h-4.5l1.7-13c0.2-1.9-1.2-3.7-3.1-3.9c-0.1,0-0.2,0-0.4,0h-29.3
				c-1.9,0-3.5,1.6-3.5,3.6c0,0.1,0,0.3,0,0.4l1.7,13h-4.5c-1,0-1.9,0.8-1.9,1.9v2.1c0,1,0.8,1.9,1.9,1.9h41.8c1,0,1.9-0.8,1.9-1.9
				v-2.1C-507.8,23.1-508.7,22.3-509.7,22.3z"/>
			<g id="Grupo_1" transform="translate(178.866 167.018)">
				<path id="Trazado_4" class="st1" d="M-711.3-150.5h1.9v3.7c-1.1,0.8-2.3,1.2-3.7,1.1c-2.6,0.1-4.8-1.8-4.9-4.4s1.8-4.8,4.4-4.9
					c0.2,0,0.4,0,0.5,0c1.4-0.1,2.8,0.5,3.8,1.6l-1.3,1.2c-0.6-0.7-1.4-1-2.3-1c-1.6,0-2.9,1.3-2.9,2.9s1.3,2.9,2.9,2.9l0,0
					c0.6,0,1.1-0.1,1.6-0.4L-711.3-150.5z"/>
				<path id="Trazado_5" class="st1" d="M-699.6-151.6c0,2-1.5,3.3-3.9,3.3h-1.8v2.5h-2.1v-9h3.9
					C-701.2-154.8-699.6-153.6-699.6-151.6z M-701.8-151.6c0-1-0.6-1.6-1.9-1.6h-1.7v3.1h1.7C-702.4-150-701.8-150.6-701.8-151.6z"
					/>
			</g>
		</g>
		<g id="Grupo_3" transform="translate(-880.502 -685.887)">
			<path id="Trazado_11" class="st0" d="M392.4,625.2h10.9v18c-2.6,1.8-5.5,3.2-8.6,4.1c-3.1,0.9-6.4,1.4-9.7,1.4
				c-4.3,0.1-8.5-0.9-12.3-2.9c-3.6-1.8-6.5-4.6-8.6-8.1c-4.1-7.2-4.1-16.1,0-23.4c2.1-3.4,5.1-6.2,8.6-8.1c3.9-2,8.2-3,12.5-2.9
				c3.7-0.1,7.5,0.6,10.9,2c3.1,1.3,5.9,3.3,8.1,5.9l-7.8,7.1c-2.6-3.1-6.5-4.9-10.6-4.9c-3.3-0.1-6.6,1.1-9,3.4
				c-2.3,2.4-3.6,5.7-3.4,9c0,2.2,0.5,4.5,1.6,6.4c1,1.9,2.5,3.4,4.4,4.4c2,1.1,4.2,1.6,6.4,1.6c2.3,0,4.6-0.5,6.7-1.4V625.2z"/>
			<path id="Trazado_12" class="st0" d="M426.5,614.8c2.1-0.8,4.4-1.2,6.6-1.1v10.6c-0.9-0.1-1.8-0.2-2.7-0.2
				c-2.2-0.1-4.3,0.6-5.9,2.1c-1.4,1.4-2.1,3.5-2.1,6.3v15.5h-11.8v-33.7h11.3v4C423.1,616.7,424.7,615.5,426.5,614.8z"/>
			<path id="Trazado_13" class="st0" d="M464.9,617.4c2.9,2.6,4.4,6.5,4.4,11.7v18.7h-11v-4.4c-1.7,3.3-5,4.9-10,4.9
				c-2.3,0.1-4.6-0.4-6.8-1.4c-1.8-0.8-3.3-2.1-4.3-3.7c-1-1.6-1.5-3.4-1.5-5.3c-0.1-2.9,1.3-5.7,3.7-7.4c2.5-1.8,6.2-2.6,11.3-2.6
				h6.7c-0.2-3.6-2.6-5.4-7.2-5.4c-1.7,0-3.3,0.3-4.9,0.8c-1.5,0.5-3,1.2-4.2,2.1l-4-8c2.1-1.3,4.4-2.3,6.8-2.9c2.6-0.7,5.3-1,8.1-1
				C457.7,613.6,462,614.9,464.9,617.4z M455.3,640c1.1-0.7,1.8-1.7,2.2-2.9v-2.9h-5.1c-3.4,0-5.2,1.1-5.2,3.4c0,1,0.4,1.9,1.2,2.5
				c0.9,0.7,2.1,1,3.2,0.9C453,641,454.2,640.7,455.3,640L455.3,640z"/>
			<path id="Trazado_14" class="st0" d="M507.9,617.3c2.6,2.5,3.8,6.2,3.8,11.3v19.3h-11.8v-17.4c0-4.6-1.8-6.9-5.5-6.9
				c-1.8-0.1-3.6,0.6-4.9,2c-1.2,1.3-1.8,3.3-1.8,6v16.3h-11.8v-33.7h11.3v3.7c1.3-1.4,2.9-2.4,4.7-3.1c1.9-0.7,3.9-1.1,6-1.1
				C501.5,613.5,505.1,614.8,507.9,617.3z"/>
			<path id="Trazado_15" class="st0" d="M555.4,601.8v46.1h-11.3v-3.4c-2.2,2.6-5.5,3.9-9.9,3.9c-2.9,0-5.8-0.7-8.4-2.1
				c-2.5-1.4-4.6-3.6-6-6.1c-3-5.8-3-12.6,0-18.4c1.4-2.5,3.5-4.6,6-6.1c2.6-1.4,5.5-2.2,8.4-2.1c4,0,7.1,1.2,9.3,3.5v-15.3
				L555.4,601.8z M541.8,636.9c1.4-1.7,2.1-3.8,2-5.9c0.1-2.1-0.6-4.2-2-5.8c-1.3-1.4-3.1-2.2-5.1-2.1c-1.9-0.1-3.8,0.7-5.1,2.1
				c-1.4,1.6-2.1,3.7-2,5.8c-0.1,2.2,0.6,4.3,2,5.9c2.7,2.8,7.2,2.9,10,0.2C541.7,637,541.7,637,541.8,636.9L541.8,636.9z"/>
			<path id="Trazado_16" class="st0" d="M592.6,615.8c2.5,1.4,4.6,3.5,6,6.1c2.9,5.8,2.9,12.6,0,18.3c-1.4,2.6-3.5,4.7-6,6.1
				c-2.6,1.4-5.4,2.2-8.4,2.1c-3.5,0.2-6.9-1.1-9.4-3.5v15H563v-45.8h11.3v3.4c2.2-2.6,5.5-3.9,10-3.9
				C587.1,613.6,590,614.3,592.6,615.8z M586.8,636.9c2.6-3.5,2.6-8.3,0-11.8c-2.8-2.8-7.3-2.9-10.1-0.1l-0.1,0.1
				c-2.7,3.5-2.7,8.3,0,11.8c2.8,2.8,7.3,2.9,10.1,0.1L586.8,636.9z"/>
			<path id="Trazado_17" class="st0" d="M632.6,617.4c2.9,2.6,4.4,6.5,4.4,11.7v18.7h-11v-4.4c-1.7,3.3-5,4.9-10,4.9
				c-2.3,0.1-4.7-0.4-6.8-1.4c-1.8-0.8-3.2-2.1-4.3-3.7c-1-1.6-1.5-3.4-1.5-5.3c-0.1-2.9,1.3-5.7,3.7-7.4c2.5-1.8,6.2-2.6,11.3-2.6
				h6.7c-0.2-3.6-2.6-5.4-7.2-5.4c-1.7,0-3.3,0.3-4.9,0.8c-1.5,0.5-3,1.2-4.2,2.1l-4-8c2.1-1.3,4.4-2.3,6.8-2.9c2.6-0.7,5.3-1,8.1-1
				C625.4,613.6,629.7,614.9,632.6,617.4z M623,640c1.1-0.7,1.8-1.7,2.2-2.9v-2.9h-5.1c-3.4,0-5.2,1.1-5.2,3.4c0,1,0.4,1.9,1.2,2.5
				c0.9,0.7,2.1,1,3.2,0.9C620.7,641,621.9,640.7,623,640L623,640z"/>
			<path id="Trazado_18" class="st0" d="M655.5,645.9c-3.5-1.8-6.5-4.6-8.6-8.1c-4.1-7.2-4.1-16.1,0-23.4c2-3.4,5-6.2,8.6-8.1
				c3.8-2,8-3,12.3-2.9c3.7-0.1,7.4,0.7,10.8,2.1c3.1,1.3,5.9,3.4,8,6.1l-7.8,7.1c-2.4-3.2-6.2-5.1-10.3-5.1c-2.2,0-4.4,0.5-6.3,1.6
				c-1.8,1-3.3,2.5-4.3,4.4c-2,4.1-2,8.9,0,13c1,1.8,2.5,3.4,4.3,4.4c1.9,1.1,4.1,1.6,6.3,1.6c4,0,7.8-1.9,10.3-5.1l7.8,7.1
				c-2.1,2.7-4.9,4.7-8,6.1c-3.4,1.5-7.1,2.2-10.8,2.1C663.5,648.8,659.3,647.8,655.5,645.9z"/>
			<path id="Trazado_19" class="st0" d="M697.5,646.2c-8.4-4.2-11.8-14.4-7.6-22.8c1.6-3.3,4.3-5.9,7.6-7.6c3-1.5,6.4-2.3,9.8-2.2
				c3.4-0.1,6.8,0.7,9.8,2.2c2.8,1.4,5.1,3.5,6.7,6.1c1.6,2.7,2.5,5.8,2.5,9c0,3.2-0.8,6.3-2.5,9c-1.6,2.7-4,4.8-6.7,6.2
				C710.9,649.2,703.7,649.2,697.5,646.2L697.5,646.2z M712.4,636.9c1.4-1.7,2.1-3.8,2-5.9c0.1-2.1-0.6-4.2-2-5.8
				c-2.8-2.8-7.4-2.8-10.2,0c0,0,0,0,0,0l0,0c-1.4,1.6-2.1,3.7-2,5.8c-0.1,2.2,0.6,4.3,2,5.9c2.8,2.8,7.3,2.9,10.1,0.1L712.4,636.9z
				"/>
			<path id="Trazado_20" class="st0" d="M732.5,608.7c-2.5-2.2-2.7-6-0.4-8.5c0.1-0.2,0.3-0.3,0.4-0.4c1.4-1.2,3.3-1.9,5.2-1.8
				c1.9-0.1,3.8,0.5,5.2,1.7c1.3,1.1,2,2.7,2,4.4c0,1.8-0.7,3.4-2,4.6C739.9,611,735.6,611.1,732.5,608.7L732.5,608.7z M731.8,614.2
				h11.8v33.7h-11.8L731.8,614.2z"/>
			<path id="Trazado_21" class="st0" d="M783.3,617.3c2.6,2.5,3.8,6.2,3.8,11.3v19.3h-11.8v-17.4c0-4.6-1.8-6.9-5.5-6.9
				c-1.8-0.1-3.6,0.6-4.9,2c-1.2,1.3-1.8,3.3-1.8,6v16.3h-11.8v-33.7h11.3v3.7c1.3-1.4,2.9-2.4,4.7-3.1c1.9-0.7,3.9-1.1,6-1.1
				C776.9,613.5,780.6,614.8,783.3,617.3z"/>
		</g>
	</g>
</g>
<g class="st2">
	<path class="st3" d="M507.2,20.4v10.7h16.9v5.5h-16.9V50h-6.5V15h25.6v5.5H507.2z"/>
	<path class="st3" d="M553.5,34.3V50h-5.9v-3.3c-1.5,2.3-4.4,3.6-8.4,3.6c-6.1,0-10-3.3-10-8c0-4.5,3-8,11.1-8h6.9V34
		c0-3.7-2.2-5.8-6.7-5.8c-3,0-6.1,1-8.1,2.7l-2.5-4.5c2.9-2.2,7-3.3,11.3-3.3C549,23,553.5,26.6,553.5,34.3z M547.2,41.6v-3.1h-6.5
		c-4.3,0-5.4,1.6-5.4,3.6c0,2.3,1.9,3.7,5.1,3.7C543.5,45.8,546.2,44.4,547.2,41.6z"/>
	<path class="st3" d="M587.3,23.3V50h-5.9v-3.4c-2,2.5-5.2,3.8-8.6,3.8c-6.8,0-11.5-3.8-11.5-11.8V23.3h6.3v14.4
		c0,4.9,2.3,7.2,6.3,7.2c4.4,0,7.3-2.7,7.3-8.1V23.3H587.3z"/>
	<path class="st3" d="M593.3,36.6c0-8,6-13.7,14.5-13.7c5.2,0,9.4,2.2,11.4,6.2l-4.8,2.8c-1.6-2.5-4-3.7-6.7-3.7
		c-4.6,0-8.1,3.2-8.1,8.4c0,5.2,3.5,8.4,8.1,8.4c2.7,0,5-1.2,6.7-3.7l4.8,2.8c-2,4-6.2,6.3-11.4,6.3
		C599.3,50.3,593.3,44.6,593.3,36.6z"/>
	<path class="st3" d="M649.2,38.6h-21c0.8,3.9,4,6.4,8.7,6.4c3,0,5.4-1,7.3-2.9l3.4,3.9c-2.4,2.8-6.2,4.3-10.8,4.3
		c-9,0-14.8-5.8-14.8-13.7c0-8,5.9-13.7,13.8-13.7c7.8,0,13.5,5.5,13.5,13.8C649.3,37.3,649.2,38,649.2,38.6z M628.2,34.5h15.2
		c-0.5-3.9-3.5-6.5-7.6-6.5C631.7,28,628.8,30.6,628.2,34.5z"/>
	<path class="st3" d="M671.3,48.5c-1.5,1.2-3.8,1.8-6,1.8c-5.9,0-9.2-3.1-9.2-9V28.5h-4.4v-5h4.4v-6.1h6.3v6.1h7.2v5h-7.2v12.7
		c0,2.6,1.3,4,3.7,4c1.3,0,2.5-0.3,3.5-1.1L671.3,48.5z"/>
</g>
</svg>
